<?xml version="1.0" standalone="no"?>
<!DOCTYPE svg PUBLIC "-//W3C//DTD SVG 20010904//EN"
 "http://www.w3.org/TR/2001/REC-SVG-20010904/DTD/svg10.dtd">
<svg version="1.0" xmlns="http://www.w3.org/2000/svg"
 width="400.000000pt" height="400.000000pt" viewBox="0 0 300.000000 300.000000"
 preserveAspectRatio="xMidYMid meet">
<metadata>
Created by Avinish Kumar
</metadata>
<g transform="translate(0.000000,300.000000) scale(0.100000,-0.100000)"
fill="#000000" stroke="none">
<path d="M1545 2068 c-2 -7 -29 -94 -60 -193 -93 -300 -145 -465 -175 -560
-72 -228 -120 -383 -120 -389 0 -4 59 -5 131 -4 l132 3 34 110 c19 61 58 187
87 280 30 94 71 224 91 290 20 66 59 190 85 275 27 85 51 165 55 178 l6 22
-131 0 c-95 0 -132 -3 -135 -12z"/>
<path d="M1116 1948 c4 -7 3 -8 -5 -4 -6 4 -58 -18 -119 -52 -59 -33 -141 -78
-182 -100 -41 -22 -131 -71 -200 -109 l-125 -70 -3 -109 -2 -109 32 -19 c105
-61 271 -152 398 -219 52 -27 104 -55 116 -62 34 -22 95 -45 89 -35 -3 6 -1
10 4 10 7 0 11 40 11 114 l0 114 -67 36 c-38 20 -79 42 -93 51 -14 8 -67 37
-117 65 -51 28 -93 53 -93 54 0 4 143 87 195 113 22 11 69 37 105 56 l65 36 3
125 c2 86 -1 126 -8 126 -6 0 -8 -5 -4 -12z"/>
<path d="M1880 1952 c0 -4 5 -13 12 -20 9 -9 9 -12 -3 -12 -13 0 -16 -18 -18
-103 l-2 -104 88 -50 c48 -28 132 -74 186 -103 53 -30 97 -56 97 -60 0 -3 -61
-39 -135 -79 -74 -40 -133 -76 -131 -80 2 -3 -6 -7 -19 -7 -13 -1 -38 -12 -54
-24 l-31 -21 0 -126 0 -125 68 37 c37 21 114 62 172 93 58 30 130 69 160 87
30 18 99 56 153 85 l97 54 0 106 c0 124 10 112 -155 200 -55 30 -122 67 -150
82 -27 16 -97 52 -155 82 -58 29 -122 63 -142 75 -21 11 -38 17 -38 13z"/>
</g>
</svg>