<?xml version="1.0" standalone="no"?>
<!DOCTYPE svg PUBLIC "-//W3C//DTD SVG 20010904//EN"
 "http://www.w3.org/TR/2001/REC-SVG-20010904/DTD/svg10.dtd">
<svg version="1.0" xmlns="http://www.w3.org/2000/svg"
 width="128.000000pt" height="128.000000pt" viewBox="0 0 128.000000 128.000000"
 preserveAspectRatio="xMidYMid meet">

<g transform="translate(0.000000,128.000000) scale(0.100000,-0.100000)"
fill="#000000" stroke="none">
<path d="M608 1107 l-36 -33 67 4 c218 13 428 -132 492 -339 36 -115 22 -255
-38 -374 -35 -69 -135 -165 -210 -202 -239 -119 -533 -13 -650 234 -33 68 -38
88 -41 170 -4 83 3 140 24 199 6 14 0 12 -22 -9 -16 -15 -37 -33 -46 -40 -13
-9 -20 -32 -24 -87 -20 -255 146 -490 401 -566 92 -27 231 -24 321 8 387 137
502 620 215 907 -101 102 -236 162 -362 161 -46 -1 -59 -5 -91 -33z"/>
<path d="M575 986 c-119 -29 -208 -104 -268 -225 -30 -61 -32 -72 -32 -171 0
-92 3 -112 26 -160 31 -66 84 -130 108 -130 22 0 81 61 81 82 0 27 -30 38 -56
21 -30 -19 -41 -11 -70 51 -34 72 -32 102 6 110 22 4 30 11 30 27 0 14 -10 24
-30 32 -38 14 -39 42 -6 113 27 57 42 72 59 55 16 -16 57 -13 64 4 3 9 -3 25
-13 36 -18 21 -18 21 9 45 30 26 130 59 147 49 5 -3 10 -17 10 -30 0 -45 57
-42 62 3 3 24 7 27 36 24 34 -2 126 -44 137 -62 4 -6 -27 -42 -67 -80 -71 -67
-75 -69 -125 -70 -40 0 -58 -6 -82 -25 -89 -75 -44 -205 71 -205 76 0 125 57
113 132 -7 39 -6 41 63 110 46 46 77 69 89 66 22 -4 53 -64 60 -117 5 -36 4
-38 -27 -44 -27 -6 -31 -10 -28 -34 2 -22 9 -29 31 -31 22 -3 27 -8 27 -31 0
-15 -12 -52 -27 -82 -22 -42 -32 -53 -48 -51 -56 10 -70 7 -73 -14 -4 -26 70
-96 93 -88 23 9 85 99 105 152 72 193 -16 422 -193 505 -96 45 -188 56 -282
33z m136 -367 c18 -34 -3 -69 -41 -69 -38 0 -59 35 -41 69 16 29 66 29 82 0z"/>
<path d="M581 386 c-31 -17 -50 -53 -51 -94 0 -26 9 -43 34 -68 32 -32 38 -34
101 -34 101 0 145 32 145 105 0 42 -20 75 -57 94 -30 15 -143 13 -172 -3z
m154 -91 c0 -30 -1 -30 -59 -33 -67 -3 -81 5 -72 43 6 25 9 26 69 23 62 -3 62
-3 62 -33z"/>
</g>
</svg>
