<?xml version="1.0" encoding="iso-8859-1"?>
<!-- Generator: Adobe Illustrator 19.0.0, SVG Export Plug-In . SVG Version: 6.00 Build 0)  -->
<svg version="1.1" id="Capa_1" xmlns="http://www.w3.org/2000/svg" xmlns:xlink="http://www.w3.org/1999/xlink" x="0px" y="0px"
	 viewBox="0 0 490.667 490.667" style="enable-background:new 0 0 490.667 490.667;" xml:space="preserve">
<path style="fill:#2196F3;" d="M245.333,0C109.839,0,0,109.839,0,245.333s109.839,245.333,245.333,245.333
	s245.333-109.839,245.333-245.333C490.514,109.903,380.764,0.153,245.333,0z"/>
<path style="fill:#FAFAFA;" d="M267.968,82.219c-12.496-12.492-32.752-12.492-45.248,0L104.533,200.533
	c-18.889,18.894-18.889,49.522,0,68.416c19.139,18.289,49.277,18.289,68.416,0l19.2-19.2v123.584
	c0,29.455,23.878,53.333,53.333,53.333c29.455,0,53.333-23.878,53.333-53.333V249.749l19.2,19.2
	c19.139,18.289,49.277,18.289,68.416,0c18.889-18.894,18.889-49.522,0-68.416L267.968,82.219z"/>
<g>
</g>
<g>
</g>
<g>
</g>
<g>
</g>
<g>
</g>
<g>
</g>
<g>
</g>
<g>
</g>
<g>
</g>
<g>
</g>
<g>
</g>
<g>
</g>
<g>
</g>
<g>
</g>
<g>
</g>
</svg>
